<?xml version="1.0" encoding="UTF-8"?>
<!DOCTYPE svg PUBLIC "-//W3C//DTD SVG 1.1//EN" "http://www.w3.org/Graphics/SVG/1.1/DTD/svg11.dtd">
<!-- Creator: CorelDRAW 2017 -->
<svg xmlns="http://www.w3.org/2000/svg" xml:space="preserve" width="23.8468mm" height="24.6377mm" version="1.1" style="shape-rendering:geometricPrecision; text-rendering:geometricPrecision; image-rendering:optimizeQuality; fill-rule:evenodd; clip-rule:evenodd"
viewBox="0 0 710.61 734.18"
 xmlns:xlink="http://www.w3.org/1999/xlink">
 <defs>
  <style type="text/css">
   <![CDATA[
    .fil0 {fill:#ED3237}
   ]]>
  </style>
 </defs>
 <g id="Capa_x0020_1">
  <metadata id="CorelCorpID_0Corel-Layer"/>
  <g id="_1402911362896">
   <path class="fil0" d="M267.76 334.35c92.33,0 167.18,-74.84 167.18,-167.17 0,-92.33 -74.85,-167.17 -167.18,-167.17 -92.32,0 -167.17,74.85 -167.17,167.17 0.09,92.3 74.88,167.08 167.17,167.17zm0 -302.72c74.86,0 135.54,60.69 135.54,135.54 0,74.86 -60.68,135.54 -135.54,135.54 -74.86,0 -135.54,-60.68 -135.54,-135.54 0.08,-74.82 60.72,-135.45 135.54,-135.54zm0 0z"/>
   <path class="fil0" d="M702.23 427.82l-136.33 -72.59c-4.7,-2.56 -10.38,-2.5 -15.03,0.15l-124.79 68.32c-45.71,-34 -100.43,-51.72 -158.63,-51.72 -72.44,0.16 -139.66,28.32 -189.48,79.55 -50.46,51.72 -78.14,122.41 -77.97,199.12 0.02,8.73 7.09,15.79 15.81,15.82l440 -0.79c20.68,25.68 47.28,45.98 77.5,59.15l18.35 8.06c1.99,0.89 4.15,1.32 6.33,1.27 2.16,-0.04 4.31,-0.46 6.32,-1.27l20.72 -9.01c76.12,-31.94 125.63,-106.45 125.58,-189l0 -93c0.01,-5.87 -3.21,-11.28 -8.38,-14.07l0 0zm-670.12 206.87c3.32,-62.16 27.52,-118.93 68.64,-161.17 43.8,-45.08 103.11,-69.91 166.85,-69.91l0.48 0c52.35,0 101.38,16.45 142.03,47.61l0 85.56c0.02,33.97 8.5,67.4 24.67,97.27l-402.67 0.64zm646.87 -99.8c0.03,69.9 -41.95,132.96 -106.44,159.91l-0.16 0 -14.39 6.17 -12.02 -5.22c-63.25,-27.64 -104.15,-90.08 -104.22,-159.1l0 -85.57 116.88 -64.05 120.36 64.21 0 83.66zm0 0z"/>
   <path class="fil0" d="M515.28 526.51c-5.68,-6.63 -15.66,-7.41 -22.3,-1.73 -6.63,5.68 -7.41,15.66 -1.73,22.3l35.9 41.91c3.02,3.51 7.4,5.52 12.02,5.54 3.63,0.03 7.15,-1.2 9.96,-3.48l83.51 -67.85c6.77,-5.55 7.76,-15.53 2.21,-22.3 -5.54,-6.77 -15.53,-7.76 -22.3,-2.21l-71.49 58.2 -25.78 -30.37zm0 0z"/>
  </g>
 </g>
</svg>
