<?xml version="1.0" encoding="UTF-8"?>
<!DOCTYPE svg PUBLIC "-//W3C//DTD SVG 1.1//EN" "http://www.w3.org/Graphics/SVG/1.1/DTD/svg11.dtd">
<!-- Creator: CorelDRAW 2017 -->
<svg xmlns="http://www.w3.org/2000/svg" xml:space="preserve" width="24.1226mm" height="24.638mm" version="1.1" style="shape-rendering:geometricPrecision; text-rendering:geometricPrecision; image-rendering:optimizeQuality; fill-rule:evenodd; clip-rule:evenodd"
viewBox="0 0 2412.26 2463.8"
 xmlns:xlink="http://www.w3.org/1999/xlink">
 <defs>
  <style type="text/css">
   <![CDATA[
    .fil0 {fill:#ED3237}
   ]]>
  </style>
 </defs>
 <g id="Capa_x0020_1">
  <metadata id="CorelCorpID_0Corel-Layer"/>
  <g id="_1402911333520">
   <path class="fil0" d="M1668.1 862.33c0,-34.03 -27.58,-61.59 -61.6,-61.59l-794.57 0c-34.03,0 -61.59,27.56 -61.59,61.59l0 794.58c0,34.03 27.56,61.59 61.59,61.59l794.58 0c34.01,0 61.59,-27.56 61.59,-61.59l0 -794.58zm-129.35 732.98l-665.22 0 0 -671.38 665.22 -0.01 0 671.39zm0 0z"/>
   <path class="fil0" d="M2350.67 1059.43c34.01,0 61.59,-27.56 61.59,-61.59 0,-34.03 -27.58,-61.6 -61.59,-61.6l-306.84 0 0 -135.5 152.21 0c34.03,0 61.6,-27.57 61.6,-61.6 0,-34.03 -27.56,-61.6 -61.6,-61.6l-156.14 0.01c-22.54,-130.03 -124.65,-231.68 -254.77,-253.66l0 -156.14c0,-34.03 -27.58,-61.6 -61.59,-61.6 -34.03,0 -61.6,27.56 -61.6,61.6l0 151.1 -135.51 0 0 -357.25c0,-34.04 -27.58,-61.6 -61.59,-61.6 -34.03,0 -61.6,27.56 -61.6,61.6l0 357.25 -135.5 0 0 -151.1c0,-34.03 -27.59,-61.6 -61.6,-61.6 -34.03,0 -61.59,27.56 -61.59,61.6l0 151.1 -135.51 0 0 -357.25c0,-34.04 -27.59,-61.6 -61.6,-61.6 -34.03,0 -61.59,27.56 -61.59,61.6l0 357.25 -135.51 0 0 -151.1c0,-34.03 -27.58,-61.6 -61.6,-61.6 -34.03,0 -61.59,27.56 -61.59,61.6l0 156.14c-130.12,21.98 -232.27,123.63 -254.81,253.66l-156.12 0c-34.03,0 -61.6,27.56 -61.6,61.59 0,34.03 27.57,61.6 61.6,61.6l152.23 0 0 135.5 -306.85 0c-34.02,0 -61.6,27.57 -61.6,61.6 0,34.03 27.58,61.59 61.6,61.59l306.85 0 0 135.51 -152.23 0c-34.03,0 -61.6,27.57 -61.6,61.6 0,34.03 27.57,61.59 61.6,61.59l152.23 0 0 135.51 -306.85 0c-34.02,0 -61.6,27.57 -61.6,61.6 0,34.03 27.58,61.59 61.6,61.59l306.85 0 0 135.51 -152.23 0c-34.03,0 -61.6,27.56 -61.6,61.6 0,34.03 27.57,61.59 61.6,61.59l156.12 0c22.4,130.52 124.36,232.95 254.81,255.91l0 156.16c0,34.01 27.56,61.6 61.6,61.6 34.01,0 61.59,-27.59 61.59,-61.6l0 -153.37 135.51 0 0 307.97c0,34.04 27.56,61.6 61.59,61.6 34.02,0 61.6,-27.56 61.6,-61.6l0 -307.97 135.51 0 0 153.37c0,34.01 27.56,61.6 61.59,61.6 34.01,0 61.6,-27.59 61.6,-61.6l0 -153.37 135.5 0 0 307.97c0,34.04 27.57,61.6 61.6,61.6 34.01,0 61.59,-27.56 61.59,-61.6l0 -307.97 135.51 0 0 153.37c0,34.01 27.56,61.6 61.6,61.6 34.01,0 61.59,-27.59 61.59,-61.6l0 -156.16c130.43,-22.96 232.39,-125.38 254.77,-255.91l156.14 0c34.03,0 61.6,-27.56 61.6,-61.59 0,-34.04 -27.56,-61.6 -61.6,-61.6l-152.21 0 0 -135.51 306.84 0c34.01,0 61.59,-27.56 61.59,-61.59 0,-34.03 -27.58,-61.6 -61.59,-61.6l-306.84 0 0 -135.51 152.21 0c34.03,0 61.6,-27.56 61.6,-61.59 0,-34.03 -27.56,-61.6 -61.6,-61.6l-152.21 0 0 -135.51 306.84 0zm-614.49 911.61l-5.41 0c-1.81,0 -3.62,-0.27 -5.44,-0.27 -1.83,0 -3.6,0.27 -5.41,0.27l-248.77 0c-1.77,0 -3.58,-0.27 -5.41,-0.27 -1.84,0 -3.64,0.27 -5.41,0.27l-248.78 0c-1.79,0 -3.58,-0.27 -5.41,-0.27 -1.83,0 -3.64,0.27 -5.43,0.27l-248.78 0c-1.77,0 -3.58,-0.27 -5.41,-0.27 -1.83,0 -3.64,0.27 -5.41,0.27l-248.77 0c-1.81,0 -3.59,-0.27 -5.42,-0.27 -1.83,0 -3.62,0.27 -5.43,0.27l-5.41 0c-101.32,0.56 -183.9,-81.13 -184.44,-182.46l0 -6.21c0,-1.81 0.25,-3.64 0.25,-5.51 0,-1.81 -0.25,-3.67 -0.25,-5.44l0 -248.66c0,-1.82 0.25,-3.63 0.25,-5.48 0,-1.85 -0.25,-3.7 -0.25,-5.49l0 -248.63c0,-1.81 0.25,-3.64 0.25,-5.49 0,-1.86 -0.25,-3.67 -0.25,-5.48l0 -248.65c0,-1.81 0.25,-3.62 0.25,-5.49 0,-1.85 -0.25,-3.68 -0.25,-5.45l0 -248.67c0,-1.81 0.25,-3.64 0.25,-5.46 0,-1.85 -0.25,-3.72 -0.25,-5.49l0 -5.37c-0.09,-102.07 82.35,-185.03 184.44,-185.57l5.49 0c1.75,0 3.54,0.27 5.35,0.27 1.83,0 3.6,-0.27 5.35,-0.27l248.88 0c1.79,0 3.56,0.27 5.37,0.27 1.83,0 3.62,-0.27 5.37,-0.27l248.88 0c1.77,0 3.56,0.27 5.37,0.27 1.79,0 3.58,-0.27 5.35,-0.27l248.88 0c1.77,0 3.56,0.27 5.37,0.27 1.81,0 3.58,-0.27 5.37,-0.27l248.88 0c1.76,0 3.55,0.27 5.34,0.27 1.82,0 3.61,-0.27 5.37,-0.27l5.48 0c102.09,0.54 184.56,83.5 184.46,185.57l0 5.37c0,1.81 -0.29,3.64 -0.29,5.49 0,1.82 0.29,3.67 0.29,5.46l0 248.67c0,1.79 -0.29,3.6 -0.29,5.45 0,1.87 0.29,3.72 0.29,5.49l0 248.65c0,1.83 -0.29,3.62 -0.29,5.48 0,1.85 0.29,3.7 0.29,5.49l0 248.63c0,1.81 -0.29,3.64 -0.29,5.49 0,1.85 0.29,3.69 0.29,5.48l0 248.66c0,1.79 -0.29,3.63 -0.29,5.44 0,1.87 0.29,3.72 0.29,5.51l0 5.35c-0.08,101.32 -82.27,183.36 -183.57,183.32l-0.89 0zm0 0z"/>
  </g>
 </g>
</svg>
