<?xml version="1.0" encoding="UTF-8"?>
<!DOCTYPE svg PUBLIC "-//W3C//DTD SVG 1.1//EN" "http://www.w3.org/Graphics/SVG/1.1/DTD/svg11.dtd">
<!-- Creator: CorelDRAW 2017 -->
<svg xmlns="http://www.w3.org/2000/svg" xml:space="preserve" width="24.638mm" height="24.638mm" version="1.1" style="shape-rendering:geometricPrecision; text-rendering:geometricPrecision; image-rendering:optimizeQuality; fill-rule:evenodd; clip-rule:evenodd"
viewBox="0 0 838.75 838.75"
 xmlns:xlink="http://www.w3.org/1999/xlink">
 <defs>
  <style type="text/css">
   <![CDATA[
    .fil0 {fill:#ED3237}
   ]]>
  </style>
 </defs>
 <g id="Capa_x0020_1">
  <metadata id="CorelCorpID_0Corel-Layer"/>
  <g id="_1438746215280">
   <path class="fil0" d="M374.64 18.64c0,-10.3 -8.34,-18.64 -18.64,-18.64l-337.37 0c-10.3,0 -18.64,8.34 -18.64,18.64l0 337.37c0,10.3 8.34,18.64 18.64,18.64l337.37 0c10.3,0 18.64,-8.34 18.64,-18.64l0 -337.37zm-37.28 318.72l-300.08 0 0 -300.08 300.08 0 0 300.08zm0 0z"/>
   <path class="fil0" d="M838.75 18.64c0,-10.3 -8.34,-18.64 -18.64,-18.64l-337.37 0c-10.3,0 -18.64,8.34 -18.64,18.64l0 337.37c0,10.3 8.34,18.64 18.64,18.64l337.37 0c10.3,0 18.64,-8.34 18.64,-18.64l0 -337.37zm-37.28 318.72l-300.09 0 0 -300.08 300.09 0 0 300.08zm0 0z"/>
   <path class="fil0" d="M374.64 482.75c0,-10.3 -8.34,-18.64 -18.64,-18.64l-337.37 0c-10.3,0 -18.64,8.34 -18.64,18.64l0 337.37c0,10.3 8.34,18.64 18.64,18.64l337.37 0c10.3,0 18.64,-8.34 18.64,-18.64l0 -337.37zm-37.28 316.86l-300.08 0 0 -298.22 300.08 0 0 298.22zm0 0z"/>
   <path class="fil0" d="M838.75 482.75c0,-10.3 -8.34,-18.64 -18.64,-18.64l-337.37 0c-10.3,0 -18.64,8.34 -18.64,18.64l0 337.37c0,10.3 8.34,18.64 18.64,18.64l337.37 0c10.3,0 18.64,-8.34 18.64,-18.64l0 -337.37zm-37.28 316.86l-300.09 0 0 -298.22 300.09 0 0 298.22zm0 0z"/>
  </g>
 </g>
</svg>
