<?xml version="1.0" encoding="UTF-8"?>
<!DOCTYPE svg PUBLIC "-//W3C//DTD SVG 1.1//EN" "http://www.w3.org/Graphics/SVG/1.1/DTD/svg11.dtd">
<!-- Creator: CorelDRAW 2017 -->
<svg xmlns="http://www.w3.org/2000/svg" xml:space="preserve" width="89.0004mm" height="7.469mm" version="1.1" style="shape-rendering:geometricPrecision; text-rendering:geometricPrecision; image-rendering:optimizeQuality; fill-rule:evenodd; clip-rule:evenodd"
viewBox="0 0 10729.81 900.46"
 xmlns:xlink="http://www.w3.org/1999/xlink">
 <defs>
  <style type="text/css">
   <![CDATA[
    .fil0 {fill:#FEFEFE;fill-rule:nonzero}
   ]]>
  </style>
 </defs>
 <g id="Capa_x0020_1">
  <metadata id="CorelCorpID_0Corel-Layer"/>
  <path class="fil0" d="M-0 279.43c0,-186.23 93.02,-279.43 279.08,-279.43l372.3 0 0 123.92 -372.3 0c-103.44,0 -155.16,51.72 -155.16,155.34l0 341.75c0,103.62 51.72,155.34 155.16,155.34l372.3 0 0 123.92 -372.3 0c-186.06,0 -279.08,-93.2 -279.08,-279.44l0 -341.4zm154.64 0.18c0,-82.61 41.3,-123.92 123.91,-123.92l372.3 0 0 123.92 -341.23 0c-20.65,0 -31.07,10.42 -31.07,31.07l0 278.91c0,20.65 10.42,31.07 31.07,31.07l341.23 0 0 123.92 -372.3 0c-82.61,0 -123.91,-41.32 -123.91,-123.92l0 -341.05z"/>
  <path id="1" class="fil0" d="M1395.76 279.08l0 310.33 -123.91 0 0 -310.33c0,-103.44 -51.73,-155.16 -155.17,-155.16l-123.91 0c-103.44,0 -155.16,51.72 -155.16,155.34l0 341.75c0,103.62 51.72,155.34 154.99,155.34l403.16 0 0 123.92 -402.99 0c-186.06,0 -279.08,-93.2 -279.08,-279.44l0 -341.4c0,-186.23 93.02,-279.43 279.08,-279.43l123.91 0c186.06,0 279.08,93.02 279.08,279.08zm-154.63 0.53l0 310.33 -123.92 0 0 -279.26c0,-20.65 -10.42,-31.07 -31.25,-31.07l-62.47 0c-20.83,0 -31.25,10.42 -31.25,31.07l0 278.91c0,20.65 10.42,31.07 31.07,31.07l372.46 0 0 123.92 -403.34 0c-82.79,0 -124.09,-41.32 -124.09,-123.92l0 -341.05c0,-82.61 41.47,-123.92 124.27,-123.92l124.26 0c82.79,0 124.27,41.32 124.27,123.92z"/>
  <path id="2" class="fil0" d="M1831.25 651.55c0,61.97 -31.24,93.04 -93.55,93.04 -83.15,0 -124.62,-41.32 -124.62,-123.92l0 -620.66 123.91 0 0 589.59c0,20.65 5.3,31.07 15.89,31.07 10.6,0 15.89,-10.42 15.89,-31.07l0 -434.43 62.49 0 0 496.39zm402.47 -30.36c0,186.06 -93.02,279.08 -279.08,279.08 -41.3,0 -77.5,-15.54 -108.56,-46.61 -31.07,31.07 -67.25,46.61 -108.56,46.61 -186.06,0 -279.08,-93.02 -279.08,-279.08l0 -620.66 123.92 0 0 620.66c0,103.44 51.72,155.16 155.16,155.16 41.32,0 77.5,-20.65 108.56,-62.14 31.07,41.48 67.26,62.14 108.56,62.14 103.44,0 155.17,-51.72 155.17,-155.16l0 -620.66 123.91 0 0 620.66zm-154.63 -0.53c0,82.61 -41.3,123.92 -124.1,123.92 -61.96,0 -93.02,-31.07 -93.02,-93.04l0 -496.39 62.49 0 0 434.43c0,20.65 5.12,31.07 15.36,31.07 10.24,0 15.36,-10.42 15.36,-31.07l0 -589.59 123.92 0 0 620.66z"/>
  <path id="3" class="fil0" d="M2296.22 279.43c0,-186.23 93.02,-279.43 279.08,-279.43l372.3 0 0 123.92 -372.3 0c-103.44,0 -155.16,51.72 -155.16,155.34l0 341.75c0,103.62 51.72,155.34 155.16,155.34l372.3 0 0 123.92 -372.3 0c-186.06,0 -279.08,-93.2 -279.08,-279.44l0 -341.4zm154.64 154.82l0 -154.82c0,-82.43 41.3,-123.74 123.91,-123.74l372.3 0 0 123.92 -341.23 0c-20.65,0 -31.07,10.24 -31.07,30.72l279.26 0 0 123.92 -403.17 0zm0 31.77l403.17 0 0 123.92 -279.26 0c0,20.48 10.42,30.72 31.07,30.72l341.23 0 0 123.92 -372.3 0c-82.61,0 -123.91,-41.32 -123.91,-123.75l0 -154.81z"/>
  <path id="4" class="fil0" d="M3723.76 294.62c0,81.38 -20.83,142.8 -62.49,184.64 -41.67,41.67 -76.96,69.73 -105.91,84.21l168.4 336.28 -123.92 0 -217.12 -434.42 61.97 0c36.54,0 71.49,-16.77 105.03,-50.31 33.35,-33.37 50.12,-73.61 50.12,-120.39 0,-46.26 -16.77,-86.15 -50.12,-120.04 -33.54,-33.72 -68.49,-50.66 -105.03,-50.66l-434.78 0 0 -123.92 434.6 0c70.96,0 135.21,28.95 192.93,86.85 57.54,57.72 86.32,127.09 86.32,207.77zm-155.69 0.35c0,38.48 -13.59,71.31 -40.77,98.5 -27.35,27.19 -55.07,40.79 -83.32,40.79l-310.15 0 0 465.49 -123.92 0 0 -589.41 403.19 0c20.65,0 31.07,-5.12 31.07,-15.36 0,-10.24 -10.42,-15.36 -31.07,-15.36l-403.19 0 0 -123.92 434.07 0c28.25,0 56.13,13.77 83.32,41.32 27.19,27.54 40.77,60.2 40.77,97.97zm-0.36 605.3l-124.08 0 -155.17 -310.33 0 310.33 -123.91 0 0 -434.42 186.05 0 217.12 434.42z"/>
  <path id="5" class="fil0" d="M3785.71 0.88l0 124.1 713.69 0 0 -124.1 -713.69 0zm-0.35 154.81l0 124.1 217.3 0 0 620.66 124.1 0 0 -744.77 -341.4 0zm372.11 744.77l124.1 0 0 -620.66 217.3 0 0 -124.1 -341.4 0 0 744.77z"/>
  <path id="6" class="fil0" d="M5089 279.61l0 -279.26 123.92 0 0 279.26c0,158.69 -62.14,258.61 -186.42,300.1l0 320.57 -123.91 0 0 -434.42 31.07 0c103.62,0 155.34,-62.14 155.34,-186.24zm-527.46 0l0 -279.26 123.92 0 0 279.26c0,124.1 51.72,186.24 155.34,186.24l31.07 0 0 434.42 -123.92 0 0 -320.57c-124.27,-41.48 -186.41,-141.4 -186.41,-300.1zm496.74 -0.35c0,103.27 -41.48,154.99 -124.45,154.99l-93.2 0c-82.97,0 -124.44,-51.72 -124.44,-154.99l0 -279.26 123.91 0 0 279.26c0,20.65 10.42,31.07 31.43,31.07l31.42 0c21,0 31.42,-10.42 31.42,-31.07l0 -279.26 123.92 0 0 279.26z"/>
  <polygon class="fil0" points="5465.37,870.87 5465.37,34.6 5392.9,34.6 5392.9,870.87 "/>
  <polygon id="1" class="fil0" points="5683.85,34.6 5593.52,34.6 5593.52,870.87 5666,870.87 5666,155.03 5668.23,155.03 5978.22,870.87 6066.3,870.87 6066.3,34.6 5993.82,34.6 5993.82,752.68 5991.59,752.68 "/>
  <polygon id="2" class="fil0" points="6256.89,870.87 6256.89,465 6535.65,465 6535.65,400.33 6256.89,400.33 6256.89,99.27 6569.1,99.27 6569.1,34.6 6184.42,34.6 6184.42,870.87 "/>
  <path id="3" class="fil0" d="M6877.9 890.94c235.27,0 248.65,-238.62 248.65,-420.37 0,-181.76 -1.12,-456.05 -246.42,-456.05 -221.89,0 -245.31,243.08 -245.31,414.8 0,177.28 1.12,461.62 243.08,461.62zm6.69 -64.68c-183.99,0 -177.29,-251.99 -177.29,-380.22 0,-120.43 1.12,-366.84 169.48,-366.84 178.4,0 177.29,251.99 177.29,374.64 0,118.2 6.69,372.42 -169.48,372.42z"/>
  <path id="4" class="fil0" d="M7375.12 477.27c94.78,0 178.4,7.8 186.22,119.31 4.46,61.33 2.23,204.05 33.44,274.3l79.17 0 0 -10.03c-41.26,-22.3 -35.69,-169.49 -37.92,-209.63 -1.11,-104.81 -14.49,-179.52 -111.49,-204.05l0 -2.23c88.08,-18.96 122.64,-114.86 122.64,-196.25 0,-169.48 -104.81,-214.09 -257.56,-214.09l-161.68 0 0 836.27 72.47 0 0 -393.6 74.71 0zm-74.71 -378l104.81 0c113.74,0 169.49,32.33 169.49,154.99 0,149.42 -122.66,158.33 -147.19,158.33l-127.12 0 0 -313.32z"/>
  <polygon id="5" class="fil0" points="7836.67,107.08 7838.9,107.08 8048.53,870.87 8125.47,870.87 8332.87,107.08 8335.09,107.08 8335.09,870.87 8407.57,870.87 8407.57,34.6 8289.37,34.6 8086.45,763.83 8084.22,763.83 7885.74,34.6 7764.2,34.6 7764.2,870.87 7836.67,870.87 "/>
  <path id="6" class="fil0" d="M8622.69 548.63l110.4 -422.6 2.22 0 110.4 422.6 -223.01 0zm70.25 -514.03l-224.12 836.27 70.25 0 68.01 -257.57 254.24 0 65.78 257.57 73.6 0 -224.12 -836.27 -83.63 0z"/>
  <polygon id="7" class="fil0" points="9131.08,99.27 9131.08,870.87 9203.55,870.87 9203.55,99.27 9393.1,99.27 9393.1,34.6 8941.52,34.6 8941.52,99.27 "/>
  <polygon id="8" class="fil0" points="9542.45,870.87 9542.45,34.6 9469.98,34.6 9469.98,870.87 "/>
  <path id="9" class="fil0" d="M10073.13 587.65c-3.34,102.58 -31.21,238.61 -156.1,238.61 -183.97,0 -177.29,-251.99 -177.29,-380.22 0,-112.61 -6.68,-366.84 169.49,-366.84 112.61,0 150.53,97 157.21,196.23l72.48 0c-1.11,-141.61 -76.94,-260.91 -227.46,-260.91 -221.89,0 -244.19,243.08 -244.19,414.8 0,177.28 0,461.62 241.96,461.62 167.25,0 239.73,-160.56 236.38,-303.29l-72.48 0z"/>
  <path id="10" class="fil0" d="M10351.81 548.63l110.4 -422.6 2.22 0 110.4 422.6 -223.01 0zm70.25 -514.03l-224.12 836.27 70.25 0 68.01 -257.57 254.24 0 65.78 257.57 73.6 0 -224.12 -836.27 -83.63 0z"/>
 </g>
</svg>
